{
  "accessors": [
    {
      "bufferView": 2,
      "componentType": 5126,
      "count": 2797,
      "max": [
        0.6858159899711609,
        0.07542899996042252,
        2.0474820137023926
      ],
      "min": [
        -0.7074090242385864,
        -0.3648970127105713,
        0.03813999891281128
      ],
      "type": "VEC3"
    },
    {
      "bufferView": 2,
      "byteOffset": 33564,
      "componentType": 5126,
      "count": 2797,
      "max": [
        1.0,
        1.0,
        0.9999997019767761
      ],
      "min": [
        -1.0,
        -1.0,
        -1.0
      ],
      "type": "VEC3"
    },
    {
      "bufferView": 1,
      "componentType": 5126,
      "count": 2797,
      "max": [
        0.9935879707336426,
        0.9929590225219727
      ],
      "min": [
        0.0016720000421628356,
        0.0029430000577121973
      ],
      "type": "VEC2"
    },
    {
      "bufferView": 0,
      "componentType": 5125,
      "count": 5643,
      "type": "SCALAR"
    }
  ],
  "asset": {
    "extras": {
      "author": "asujata175 (https://sketchfab.com/asujata175)",
      "license": "CC-BY-4.0 (http://creativecommons.org/licenses/by/4.0/)",
      "source": "https://sketchfab.com/3d-models/marvels-ultron-mark-i-9d3b36bec6014b7298f4254c0e7b6563",
      "title": "Marvels  Ultron Mark I"
    },
    "generator": "Sketchfab-11.54.0",
    "version": "2.0"
  },
  "bufferViews": [
    {
      "buffer": 0,
      "byteLength": 22572,
      "name": "floatBufferViews",
      "target": 34963
    },
    {
      "buffer": 0,
      "byteLength": 22376,
      "byteOffset": 22572,
      "byteStride": 8,
      "name": "floatBufferViews",
      "target": 34962
    },
    {
      "buffer": 0,
      "byteLength": 67128,
      "byteOffset": 44948,
      "byteStride": 12,
      "name": "floatBufferViews",
      "target": 34962
    }
  ],
  "buffers": [
    {
      "byteLength": 112076,
      "uri": "scene.bin"
    }
  ],
  "images": [
    {
      "uri": "textures/MFF_iOS_VIL_ULT_MK1_B_baseColor.png"
    }
  ],
  "materials": [
    {
      "doubleSided": true,
      "name": "MFF_iOS_VIL_ULT_MK1_B",
      "pbrMetallicRoughness": {
        "baseColorTexture": {
          "index": 0
        },
        "metallicFactor": 0.0,
        "roughnessFactor": 0.0
      }
    }
  ],
  "meshes": [
    {
      "name": "Object_0",
      "primitives": [
        {
          "attributes": {
            "NORMAL": 1,
            "POSITION": 0,
            "TEXCOORD_0": 2
          },
          "indices": 3,
          "material": 0,
          "mode": 4
        }
      ]
    }
  ],
  "nodes": [
    {
      "children": [
        1
      ],
      "matrix": [
        1.0,
        0.0,
        0.0,
        0.0,
        0.0,
        2.220446049250313e-16,
        -1.0,
        0.0,
        0.0,
        1.0,
        2.220446049250313e-16,
        0.0,
        0.0,
        0.0,
        0.0,
        1.0
      ],
      "name": "Sketchfab_model"
    },
    {
      "children": [
        2
      ],
      "name": "M-FF_iOS_VILLAIN_Ultron_Mark_I.obj.cleaner.materialmerger.gles"
    },
    {
      "mesh": 0,
      "name": "Object_2"
    }
  ],
  "samplers": [
    {
      "magFilter": 9729,
      "minFilter": 9987,
      "wrapS": 10497,
      "wrapT": 10497
    }
  ],
  "scene": 0,
  "scenes": [
    {
      "name": "Sketchfab_Scene",
      "nodes": [
        0
      ]
    }
  ],
  "textures": [
    {
      "sampler": 0,
      "source": 0
    }
  ]
}
