{
  "accessors": [
    {
      "bufferView": 2,
      "componentType": 5126,
      "count": 2759,
      "max": [
        0.5723789930343628,
        0.22936800122261047,
        1.8758599758148193
      ],
      "min": [
        -0.5723789930343628,
        -0.1640619933605194,
        0.041127998381853104
      ],
      "type": "VEC3"
    },
    {
      "bufferView": 2,
      "byteOffset": 33108,
      "componentType": 5126,
      "count": 2759,
      "max": [
        0.9989067912101746,
        0.9999294877052307,
        0.9993221163749695
      ],
      "min": [
        -0.9989067912101746,
        -0.9999879598617554,
        -1.0
      ],
      "type": "VEC3"
    },
    {
      "bufferView": 1,
      "componentType": 5126,
      "count": 2759,
      "max": [
        0.9942790269851685,
        0.9966790080070496
      ],
      "min": [
        0.005878999829292297,
        0.002592999953776598
      ],
      "type": "VEC2"
    },
    {
      "bufferView": 0,
      "componentType": 5125,
      "count": 8211,
      "type": "SCALAR"
    }
  ],
  "asset": {
    "extras": {
      "author": "asujata175 (https://sketchfab.com/asujata175)",
      "license": "CC-BY-4.0 (http://creativecommons.org/licenses/by/4.0/)",
      "source": "https://sketchfab.com/3d-models/marvels-ancient-one-doctor-strange-40377c2db57c4ed2ab8e2f579c9b9966",
      "title": "Marvels  Ancient One Doctor Strange"
    },
    "generator": "Sketchfab-11.53.2",
    "version": "2.0"
  },
  "bufferViews": [
    {
      "buffer": 0,
      "byteLength": 32844,
      "name": "floatBufferViews",
      "target": 34963
    },
    {
      "buffer": 0,
      "byteLength": 22072,
      "byteOffset": 32844,
      "byteStride": 8,
      "name": "floatBufferViews",
      "target": 34962
    },
    {
      "buffer": 0,
      "byteLength": 66216,
      "byteOffset": 54916,
      "byteStride": 12,
      "name": "floatBufferViews",
      "target": 34962
    }
  ],
  "buffers": [
    {
      "byteLength": 121132,
      "uri": "scene.bin"
    }
  ],
  "images": [
    {
      "uri": "textures/MFF_iOS_HER_YAO_MCU_B_baseColor.png"
    }
  ],
  "materials": [
    {
      "doubleSided": true,
      "name": "MFF_iOS_HER_YAO_MCU_B",
      "pbrMetallicRoughness": {
        "baseColorTexture": {
          "index": 0
        },
        "metallicFactor": 0.0,
        "roughnessFactor": 0.43891402027129733
      }
    }
  ],
  "meshes": [
    {
      "name": "Object_0",
      "primitives": [
        {
          "attributes": {
            "NORMAL": 1,
            "POSITION": 0,
            "TEXCOORD_0": 2
          },
          "indices": 3,
          "material": 0,
          "mode": 4
        }
      ]
    }
  ],
  "nodes": [
    {
      "children": [
        1
      ],
      "matrix": [
        1.0,
        0.0,
        0.0,
        0.0,
        0.0,
        2.220446049250313e-16,
        -1.0,
        0.0,
        0.0,
        1.0,
        2.220446049250313e-16,
        0.0,
        0.0,
        0.0,
        0.0,
        1.0
      ],
      "name": "Sketchfab_model"
    },
    {
      "children": [
        2
      ],
      "name": "M-FF_iOS_HERO_Yao_Ancient_One_M.C.U.obj.cleaner.materialmerger.gles"
    },
    {
      "mesh": 0,
      "name": "Object_2"
    }
  ],
  "samplers": [
    {
      "magFilter": 9729,
      "minFilter": 9987,
      "wrapS": 10497,
      "wrapT": 10497
    }
  ],
  "scene": 0,
  "scenes": [
    {
      "name": "Sketchfab_Scene",
      "nodes": [
        0
      ]
    }
  ],
  "textures": [
    {
      "sampler": 0,
      "source": 0
    }
  ]
}
